<?xml version="1.0" encoding="UTF-8" standalone="no"?>
<svg
   xmlns:dc="http://purl.org/dc/elements/1.1/"
   xmlns:cc="http://creativecommons.org/ns#"
   xmlns:rdf="http://www.w3.org/1999/02/22-rdf-syntax-ns#"
   xmlns:svg="http://www.w3.org/2000/svg"
   xmlns="http://www.w3.org/2000/svg"
   xmlns:sodipodi="http://sodipodi.sourceforge.net/DTD/sodipodi-0.dtd"
   xmlns:inkscape="http://www.inkscape.org/namespaces/inkscape"
   version="1.0"
   width="3514.000000pt"
   height="1302.000000pt"
   viewBox="0 0 3514.000000 1302.000000"
   preserveAspectRatio="xMidYMid meet"
   id="svg44"
   sodipodi:docname="EpitechMySpotify.svg"
   inkscape:version="0.92.3 (2405546, 2018-03-11)">
  <defs
     id="defs48" />
  <sodipodi:namedview
     pagecolor="#ffffff"
     bordercolor="#666666"
     borderopacity="1"
     objecttolerance="10"
     gridtolerance="10"
     guidetolerance="10"
     inkscape:pageopacity="0"
     inkscape:pageshadow="2"
     inkscape:window-width="1920"
     inkscape:window-height="962"
     id="namedview46"
     showgrid="false"
     inkscape:zoom="0.14307141"
     inkscape:cx="1232.9411"
     inkscape:cy="866.6414"
     inkscape:window-x="0"
     inkscape:window-y="41"
     inkscape:window-maximized="1"
     inkscape:current-layer="g42" />
  <metadata
     id="metadata2">
Created by potrace 1.16, written by Peter Selinger 2001-2019
<rdf:RDF>
  <cc:Work
     rdf:about="">
    <dc:format>image/svg+xml</dc:format>
    <dc:type
       rdf:resource="http://purl.org/dc/dcmitype/StillImage" />
  </cc:Work>
</rdf:RDF>
</metadata>
  <g
     transform="translate(0.000000,1302.000000) scale(0.100000,-0.100000)"
     fill="#000000"
     stroke="none"
     id="g42">
    <path
       d="M1620 13005 c-402 -64 -651 -262 -743 -590 l-22 -80 -5 -2510 c-7 -2741 -2 -2532 -61 -2707 -103 -311 -362 -538 -669 -588 -131 -21 -132 -21 -30 -40 338 -63 603 -287 704 -595 54 -165 50 26 56 -2705 5 -2394 6 -2518 24 -2580 25 -92 97 -236 148 -297 125 -150 327 -254 577 -297 78 -13 182 -16 603 -16 l508 0 0 213 0 214 -207 6 c-312 10 -443 37 -562 115 -92 61 -147 156 -184 315 l-21 92 -6 2330 c-7 2532 -3 2364 -60 2535 -110 330 -378 580 -713 665 l-92 23 45 12 c233 59 353 124 503 269 174 168 278 385 307 641 6 53 10 920 10 2297 0 1910 2 2228 15 2327 33 248 110 379 266 450 122 56 257 76 516 76 l183 0 0 220 0 220 -502 -1 c-368 -1 -526 -5 -588 -14z"
       id="path4"
       style="fill:#006ab3;fill-opacity:1" />
    <path
       d="M32540 12688 l0 -218 163 0 c551 0 722 -126 766 -565 8 -75 11 -779 11 -2279 0 -2381 -3 -2271 60 -2456 52 -158 118 -268 229 -383 117 -122 297 -225 454 -259 57 -12 84 -28 50 -28 -34 0 -182 -49 -248 -83 -263 -132 -441 -363 -518 -675 l-21 -87 -6 -2285 c-6 -2090 -8 -2292 -23 -2367 -52 -253 -157 -370 -380 -423 -87 -21 -302 -40 -449 -40 l-88 0 0 -216 0 -216 468 5 c416 4 480 7 582 25 380 68 603 251 692 568 l23 79 5 2465 c6 2740 0 2498 72 2697 101 279 374 498 679 544 87 14 86 23 -5 33 -83 9 -224 58 -310 108 -85 49 -236 197 -284 280 -51 87 -100 206 -124 304 l-22 89 -6 2465 c-6 2783 3 2501 -87 2690 -86 180 -262 319 -486 384 -164 48 -266 56 -750 58 l-447 3 0 -217z"
       id="path6"
       style="fill:#006ab3;fill-opacity:1" />
    <path
       d="M4560 11539 c-216 -25 -428 -111 -597 -240 -85 -66 -219 -212 -284 -311 -158 -241 -235 -472 -259 -784 -29 -360 59 -744 235 -1035 l36 -59 -45 -73 c-101 -162 -170 -349 -207 -562 -31 -182 -31 -445 0 -630 81 -477 347 -859 726 -1041 61 -29 144 -62 185 -74 182 -51 160 -50 1733 -50 l1467 0 0 530 0 530 -1352 2 -1353 3 -58 23 c-105 43 -187 146 -217 272 -16 67 -16 199 0 260 27 106 96 207 172 256 l38 24 1385 0 1385 0 0 535 0 535 -1347 0 c-937 0 -1360 3 -1388 11 -154 42 -256 202 -257 405 -1 185 77 335 210 403 83 42 102 43 1474 35 l1308 -7 0 526 0 527 -1457 -1 c-802 -1 -1492 -5 -1533 -10z"
       id="path8"
       style="fill:#006ab3;fill-opacity:1" />
    <path
       d="M8030 11020 l0 -520 1332 0 c1474 0 1395 3 1489 -65 57 -41 123 -139 146 -214 24 -78 24 -238 -1 -309 -25 -74 -90 -167 -142 -203 -97 -67 -44 -63 -964 -69 -917 -7 -873 -4 -1075 -71 -421 -140 -713 -530 -774 -1034 -7 -59 -11 -399 -11 -987 l0 -898 540 0 541 0 -5 543 c-2 298 -8 573 -11 611 -9 89 10 250 41 347 28 89 103 209 170 273 54 52 153 107 239 132 54 16 133 18 755 24 599 6 707 9 785 24 121 23 250 67 354 121 377 196 637 614 691 1113 16 141 8 433 -15 555 -72 390 -265 715 -550 925 -79 58 -261 146 -355 172 -188 50 -170 50 -1727 50 l-1453 0 0 -520z"
       id="path10"
       style="fill:#006ab3;fill-opacity:1" />
    <path
       d="M12560 9100 l0 -2440 545 0 545 0 0 2440 0 2440 -545 0 -545 0 0 -2440z"
       id="path12"
       style="fill:#006ab3;fill-opacity:1" />
    <path
       d="M13940 11022 l0 -522 545 0 545 0 0 -1920 0 -1920 535 0 535 0 0 1920 0 1920 550 0 550 0 0 515 0 515 -1217 0 c-670 0 -1404 3 -1630 7 l-413 6 0 -521z"
       id="path14"
       style="fill:#006ab3;fill-opacity:1" />
    <path
       d="M18705 11524 c-312 -37 -545 -143 -740 -339 -214 -213 -351 -486 -411 -820 -25 -137 -26 -471 -1 -600 39 -215 115 -428 202 -573 l47 -77 -26 -45 c-114 -195 -182 -372 -218 -566 -29 -161 -31 -498 -4 -649 61 -336 196 -606 407 -813 102 -100 177 -154 294 -211 110 -55 159 -72 285 -104 84 -21 95 -21 1573 -24 l1487 -4 0 532 0 532 -1327 -4 -1328 -4 -56 23 c-30 12 -75 39 -98 59 -204 174 -177 582 48 725 l45 28 1358 0 1358 0 0 525 0 525 -1337 2 -1338 3 -57 27 c-285 133 -287 635 -3 786 l50 27 1343 3 1342 2 0 514 0 513 -212 6 c-211 7 -2626 7 -2683 1z"
       id="path16"
       style="fill:#006ab3;fill-opacity:1" />
    <path
       d="M23555 11513 c-238 -31 -452 -104 -619 -211 -434 -278 -777 -841 -909 -1492 -48 -233 -59 -357 -64 -680 -5 -335 6 -494 52 -744 87 -469 296 -908 580 -1216 226 -245 473 -388 802 -462 l98 -23 1303 -3 1302 -3 0 531 0 530 -1133 0 c-1248 0 -1181 -3 -1317 63 -88 43 -227 182 -293 295 -128 218 -207 479 -238 786 -17 173 -7 518 20 671 77 438 272 767 518 878 129 58 99 57 1321 57 l1122 0 0 515 0 515 -1257 -1 c-692 -1 -1271 -4 -1288 -6z"
       id="path18"
       style="fill:#006ab3;fill-opacity:1" />
    <path
       d="M26520 9100 l0 -2420 540 0 540 0 0 955 0 955 950 0 950 0 0 -956 0 -957 38 7 c20 3 261 6 535 6 l497 0 0 2410 0 2410 -535 0 -535 0 0 -935 0 -935 -950 0 -950 0 0 940 0 940 -540 0 -540 0 0 -2420z"
       id="path20"
       style="fill:#006ab3;fill-opacity:1" />
    <path
       d="M28270 5529 c-286 -33 -470 -148 -574 -359 -78 -159 -116 -360 -116 -614 0 -61 -3 -135 -6 -163 l-7 -53 -193 0 -194 0 0 -360 0 -360 200 0 200 0 0 -1115 0 -1115 370 0 370 0 0 1115 0 1115 360 0 360 0 0 360 0 360 -360 0 -360 0 0 88 c0 111 17 244 36 291 21 50 61 90 114 114 41 19 70 21 303 25 l257 5 0 338 0 339 -342 -1 c-189 -1 -377 -5 -418 -10z"
       id="path22"
       style="fill:#006ab3;fill-opacity:1" />
    <path
       d="M25960 5086 l0 -363 68 -6 c37 -4 205 -7 375 -7 l307 0 0 370 0 370 -375 0 -375 0 0 -364z"
       id="path24"
       style="fill:#006ab3;fill-opacity:1" />
    <path
       d="M4303 5130 c-162 -37 -282 -102 -398 -217 -81 -80 -153 -181 -210 -293 -63 -125 -476 -1296 -1081 -3067 -27 -78 -45 -145 -41 -150 11 -11 779 -16 836 -6 l44 8 223 655 c583 1707 750 2185 775 2226 22 36 73 64 116 64 35 0 87 -31 105 -62 10 -18 14 -238 19 -1098 7 -1086 8 -1132 45 -1274 51 -198 197 -383 373 -475 275 -143 739 -147 1019 -8 128 64 276 215 369 379 54 94 154 366 709 1938 92 261 175 494 185 517 24 56 60 78 126 78 46 0 57 -4 85 -33 l33 -32 6 -1373 c4 -754 7 -1405 8 -1444 l1 -73 410 0 410 0 0 1524 0 1524 -25 88 c-33 114 -99 252 -160 332 -89 118 -223 204 -402 259 -86 26 -95 26 -348 27 l-260 0 -92 -31 c-231 -77 -393 -221 -517 -461 -67 -130 -125 -289 -481 -1297 -420 -1191 -403 -1147 -441 -1182 -28 -27 -42 -33 -79 -33 -58 0 -100 22 -121 62 -15 29 -17 131 -21 1052 -2 562 -8 1075 -13 1142 -23 295 -176 540 -410 659 -75 38 -207 75 -304 85 -153 16 -399 11 -493 -10z"
       id="path26"
       style="fill:#006ab3;fill-opacity:1" />
    <path
       d="M13640 5080 c-475 -25 -830 -267 -959 -655 -47 -141 -64 -287 -58 -494 6 -223 33 -348 106 -496 101 -203 246 -335 478 -435 115 -49 264 -87 388 -100 55 -5 352 -14 660 -20 625 -11 626 -11 714 -80 35 -28 59 -58 83 -107 30 -61 33 -76 33 -153 0 -65 -5 -96 -21 -131 -32 -69 -88 -125 -159 -159 l-63 -30 -1035 0 c-569 0 -1055 -3 -1081 -6 l-46 -7 0 -408 0 -409 483 1 c265 0 786 5 1157 9 718 9 702 8 885 61 100 29 258 109 340 172 182 139 304 358 351 631 22 126 14 452 -14 581 -41 187 -115 327 -242 456 -97 98 -195 162 -332 218 -220 90 -297 99 -948 110 -613 11 -675 14 -727 36 -161 67 -234 275 -153 436 30 60 66 96 125 127 l50 27 405 6 c223 4 676 7 1008 8 l602 1 0 410 0 410 -947 -2 c-522 0 -1009 -4 -1083 -8z"
       id="path28"
       style="fill:#006ab3;fill-opacity:1" />
    <path
       d="M23980 4685 l0 -345 -195 0 -195 0 0 -360 0 -360 195 0 195 0 1 -392 c0 -608 14 -1087 34 -1188 60 -315 202 -502 444 -586 126 -44 239 -55 624 -61 l357 -6 0 346 0 346 -262 3 c-254 3 -265 4 -312 27 -51 25 -95 81 -118 151 -8 25 -13 225 -15 698 l-4 662 360 0 361 0 0 360 0 360 -360 0 -360 0 0 345 0 345 -375 0 -375 0 0 -345z"
       id="path30"
       style="fill:#006ab3;fill-opacity:1" />
    <path
       d="M9018 4333 l-56 -4 27 -82 c39 -112 295 -803 581 -1567 348 -929 342 -913 405 -1000 63 -86 158 -136 314 -166 41 -8 77 -17 79 -19 11 -11 -5 -54 -337 -905 -72 -184 -131 -338 -131 -342 0 -5 179 -8 398 -8 l397 0 212 543 c116 298 476 1216 798 2040 323 824 585 1500 583 1502 -8 8 -629 17 -700 11 l-77 -8 -34 -81 c-51 -124 -287 -717 -570 -1437 l-254 -645 -32 -3 c-47 -5 -79 36 -130 169 -44 115 -463 1244 -647 1741 l-99 268 -335 -2 c-184 -1 -361 -3 -392 -5z"
       id="path32"
       style="fill:#006ab3;fill-opacity:1" />
    <path
       d="M25960 2865 l0 -1475 375 0 375 0 0 1475 0 1475 -375 0 -375 0 0 -1475z"
       id="path34"
       style="fill:#006ab3;fill-opacity:1" />
    <path
       d="M29303 4333 c-34 -3 -53 -9 -53 -16 0 -36 884 -2403 946 -2534 41 -87 120 -176 185 -209 49 -24 162 -58 235 -69 l42 -6 -10 -37 c-9 -33 -66 -180 -379 -985 -49 -126 -89 -230 -89 -233 0 -2 179 -4 398 -4 l398 0 799 2040 c439 1122 796 2042 794 2044 -8 9 -626 19 -701 12 l-77 -8 -249 -626 c-137 -345 -330 -833 -428 -1084 l-179 -457 -31 -1 c-47 0 -78 39 -125 159 -33 85 -561 1504 -714 1919 l-38 102 -336 -2 c-185 -1 -360 -3 -388 -5z"
       id="path36"
       style="fill:#006ab3;fill-opacity:1" />
    <path
       d="M17332 4315 c-309 -56 -531 -215 -662 -475 -82 -163 -127 -360 -140 -620 -5 -96 -10 -806 -10 -1577 l0 -1403 375 0 375 0 0 575 0 575 273 1 c531 1 1098 17 1159 32 450 115 726 378 852 811 58 200 71 315 71 636 0 264 -3 309 -23 425 -78 440 -281 743 -606 907 -120 60 -268 105 -386 118 -155 15 -1186 12 -1278 -5z m1205 -722 c131 -43 212 -115 268 -236 51 -111 66 -198 72 -407 16 -553 -93 -768 -421 -825 -72 -12 -189 -15 -637 -15 l-548 0 5 538 c3 295 9 568 14 605 16 128 96 254 189 301 119 60 176 65 626 62 339 -3 375 -5 432 -23z"
       id="path38"
       style="fill:#006ab3;fill-opacity:1" />
    <path
       d="M21114 4315 c-476 -82 -804 -395 -923 -882 -42 -171 -55 -314 -54 -588 0 -326 31 -519 119 -743 149 -379 462 -622 884 -687 137 -22 502 -29 825 -17 242 10 293 14 375 35 211 54 369 140 514 278 186 176 283 366 353 694 27 128 28 136 28 465 0 326 -1 338 -27 460 -34 157 -68 260 -122 376 -62 130 -116 206 -220 309 -139 136 -282 214 -519 282 l-92 27 -530 2 c-415 2 -547 0 -611 -11z m1009 -718 c187 -54 280 -154 338 -362 18 -67 22 -115 26 -298 6 -243 -5 -368 -43 -488 -54 -172 -155 -270 -327 -316 -53 -15 -115 -17 -422 -18 -320 0 -368 2 -430 19 -202 53 -309 174 -358 405 -17 80 -20 135 -21 326 -1 243 4 284 50 427 59 182 157 267 359 313 93 22 748 15 828 -8z"
       id="path40"
       style="fill:#006ab3;fill-opacity:1" />
    <circle
       style="fill:#8aaed8;fill-opacity:1;stroke:none;stroke-width:26.25;stroke-linejoin:miter;stroke-miterlimit:4;stroke-dasharray:none;stroke-opacity:1"
       id="path858"
       cx="31885.199"
       cy="-7324.5151"
       transform="scale(1,-1)"
       r="637.5" />
  </g>
</svg>
